PathFileType	4	(X/Y/Z)	E:\Marcel_BSc\Ayumi_22_01_2025\22-01-2025\conv_dl_3.trc
DataRate	CameraRate	NumFrames	NumMarkers	Units	OrigDataRate	OrigDataStartFrame	OrigNumFrames
200.0	200.0	5	47	mm	200.0	1729	2304	
Frame#	Time	FHD			LBHD			RBHD			RBAR			LBAR			RSACR			LSACR			USACR			C7			CLAV			T10			RSHO			LSHO			LTHI1			LTHI3			LTHI2			LTIB1			LTIB2			LTIB3			LMMAL			LLMAL			LHEE			LMT1			LMT5			LMT3			RTHI1			RTHI2			RTHI3			RTIB1			RTIB3			RTIB2			RLMAL			RMMAL			RHEE			RMT5			RMT1			RMT3			LDUPA			LMUPA			LUUPA			LRAD			RUL			RRAD			RUFIN			RMUPA			RDUPA			RUUPA			
		X1	Y1	Z1	X2	Y2	Z2	X3	Y3	Z3	X4	Y4	Z4	X5	Y5	Z5	X6	Y6	Z6	X7	Y7	Z7	X8	Y8	Z8	X9	Y9	Z9	X10	Y10	Z10	X11	Y11	Z11	X12	Y12	Z12	X13	Y13	Z13	X14	Y14	Z14	X15	Y15	Z15	X16	Y16	Z16	X17	Y17	Z17	X18	Y18	Z18	X19	Y19	Z19	X20	Y20	Z20	X21	Y21	Z21	X22	Y22	Z22	X23	Y23	Z23	X24	Y24	Z24	X25	Y25	Z25	X26	Y26	Z26	X27	Y27	Z27	X28	Y28	Z28	X29	Y29	Z29	X30	Y30	Z30	X31	Y31	Z31	X32	Y32	Z32	X33	Y33	Z33	X34	Y34	Z34	X35	Y35	Z35	X36	Y36	Z36	X37	Y37	Z37	X38	Y38	Z38	X39	Y39	Z39	X40	Y40	Z40	X41	Y41	Z41	X42	Y42	Z42	X43	Y43	Z43	X44	Y44	Z44	X45	Y45	Z45	X46	Y46	Z46	X47	Y47	Z47	
1729	8.635	-227.82172	762.73157	-552.61975	-202.70825	792.68353	-502.37732	-197.01628	771.18304	-632.81439	199.48363	237.96454	-1731.0989	209.76381	251.34242	491.6073	467.13303	865.51508	-685.698	470.49768	868.39307	-613.3949	456.8338	870.11725	-648.16168	7.9958291	898.57275	-592.25793	57.72578	751.69324	-604.80646	278.94214	907.83105	-633.67023	0.73292327	758.28424	-734.78906	43.92495	768.71246	-437.02142	367.45334	558.56232	-426.98407	337.62781	501.81741	-440.22272	304.30545	538.09747	-428.19131	231.25217	230.29077	-438.4877	293.59222	234.80586	-427.49762	264.60239	176.05847	-433.30759	259.21286	76.547157	-520.48712	281.17368	69.875717	-444.35641	319.66541	35.1418	-492.03391	122.63153	46.450352	-475.67316	150.93881	26.879509	-400.92047	124.69241	43.513565	-440.50531	354.73535	552.96527	-861.05151	291.81924	534.71771	-858.02002	324.95749	497.06647	-844.80048	245.42407	268.39343	-854.75568	269.89313	209.96417	-841.76813	295.50821	269.75827	-850.61896	289.96616	72.010384	-816.37738	252.84836	82.658279	-746.53015	329.78152	30.831289	-762.67932	151.28667	35.085903	-844.0741	131.01874	42.168983	-793.39117	138.35823	39.186497	-823.1438	210.44699	648.51508	-380.99506	164.27303	630.48352	-387.56586	141.19751	688.02795	-389.40341	233.60826	319.04178	-348.51123	154.06592	312.69894	-925.11322	158.62857	304.69208	-862.6535	161.25835	231.88968	-865.18726	63.154018	697.01593	-833.49365	84.893906	642.883	-855.84772	103.04313	719.74237	-852.17596
1730	8.64	-227.47728	761.97333	-552.80518	-202.37537	792.06799	-502.58636	-196.81544	770.93127	-633.26117	199.59784	239.03261	-1731.035	209.75681	251.11067	491.57205	467.31232	865.24048	-685.61108	470.66238	868.14203	-613.29614	457.07217	869.84387	-648.07031	8.1224318	898.65741	-592.13385	58.038296	751.59723	-604.81854	279.09299	907.49695	-633.51129	0.97190863	757.98602	-734.58105	44.456093	768.75977	-436.99936	367.39227	558.44531	-426.80069	337.59714	501.72745	-440.00266	304.2352	538.0108	-428.00214	230.96735	230.37599	-438.46426	293.32953	234.97234	-427.37314	264.32224	176.06908	-433.29791	259.12628	76.507362	-520.39716	281.16354	69.868019	-444.32666	319.65988	35.230698	-492.0249	122.6086	46.289402	-475.66412	150.92201	26.752211	-400.93121	124.68759	43.474499	-440.47272	354.51309	553.10699	-860.73273	291.62793	534.8183	-857.63354	324.86957	496.86798	-844.62903	245.19711	269.10687	-854.85419	269.89978	210.25302	-841.73621	295.55466	269.94135	-850.50165	289.91483	71.988022	-816.34424	252.82985	82.597229	-746.55963	329.75571	30.912767	-762.63611	151.2495	34.984058	-844.08618	131.03375	42.065521	-793.38586	138.33382	39.109409	-823.16718	210.91455	648.88812	-380.90723	164.77777	630.67828	-387.44785	141.53143	688.34015	-389.13245	233.68427	319.04514	-348.59348	154.02997	313.17883	-924.67407	158.72389	304.89212	-862.70935	161.25768	232.05943	-865.25909	62.9645	697.40973	-833.37555	84.715797	643.29333	-855.88757	102.79475	720.13068	-852.19073
1731	8.645	-227.22913	761.42993	-552.92596	-202.44566	791.37225	-502.6828	-196.37456	770.54529	-633.43005	199.74695	239.80774	-1731.1858	209.8884	251.08046	491.51544	467.65103	864.92743	-685.47498	470.86075	867.88843	-613.17822	457.39777	869.40485	-648.06854	8.3226748	898.75769	-591.90948	58.237057	751.8042	-604.65887	279.38727	907.39276	-633.45935	1.0832853	758.37158	-734.3609	44.784756	768.73547	-436.93402	367.3421	558.44598	-426.52869	337.48056	501.65201	-439.75772	304.18234	538.07568	-427.6886	230.78201	230.47261	-438.36813	293.08566	235.047	-427.21735	264.22299	176.25436	-433.13641	259.19684	76.576035	-520.32605	281.15881	69.819374	-444.27692	319.67841	35.158955	-492.01727	122.66822	46.422985	-475.59726	150.92796	26.836437	-400.86844	124.71305	43.521103	-440.43619	354.69952	552.64362	-860.79865	291.77087	534.59454	-857.72845	324.89117	496.64691	-844.5163	245.24461	269.23669	-854.85449	269.95343	210.31993	-841.70557	295.64465	269.99319	-850.46869	289.95966	72.000938	-816.29413	252.87685	82.673538	-746.47253	329.79752	30.80957	-762.63519	151.27242	35.079079	-843.99182	131.10698	42.116131	-793.33997	138.37569	39.193058	-823.08862	211.39569	649.25391	-380.84595	165.17934	631.04138	-387.15674	141.90776	688.58057	-388.94025	233.69722	319.0658	-348.48483	153.91718	313.43903	-924.66217	158.53334	305.12024	-863.24805	161.4281	232.50015	-865.14996	62.958508	698.02783	-833.22064	84.581093	644.00763	-855.99402	102.65379	720.79456	-852.25623
1732	8.65	-226.70267	760.78027	-553.2478	-202.24553	790.72949	-502.96527	-195.91805	770.34277	-633.68353	199.97668	239.87415	-1731.2546	209.9929	250.73489	491.44571	467.85193	864.80914	-685.53638	471.10034	867.63	-613.11652	457.66766	869.1394	-647.94067	8.5792065	898.89978	-591.72754	58.498234	751.93396	-604.6427	279.66956	907.70502	-633.42224	1.10159	759.02734	-734.2973	45.227333	768.51587	-437.04056	367.09198	558.40851	-426.30783	337.34805	501.64615	-439.50552	304.05255	538.15875	-427.52112	230.60074	230.29858	-438.31085	292.85135	235.13817	-427.05502	264.31177	176.24188	-433.01068	259.24606	76.602142	-520.36603	281.18594	69.801849	-444.21854	319.70496	35.140293	-492.01105	122.71024	46.461655	-475.58539	150.93701	26.883234	-400.87109	124.73604	43.554325	-440.46625	354.73737	552.461	-860.77087	291.85361	534.40985	-857.74823	324.87811	496.4895	-844.46265	245.27159	269.32413	-854.91162	269.94934	210.4346	-841.70636	295.6416	270.11386	-850.42316	289.99374	72.027458	-816.33435	252.87032	82.667183	-746.48853	329.79312	30.744999	-762.61761	151.29054	35.109402	-844.01611	131.14967	42.155014	-793.34302	138.40198	39.232231	-823.12762	211.86002	649.51196	-380.88153	165.67448	631.32184	-386.92291	142.46631	688.74756	-388.74048	233.68706	318.9729	-348.4877	154.20935	313.66788	-924.8775	158.6156	305.57648	-862.90967	161.43814	232.61615	-865.23938	62.984966	698.7868	-833.13159	84.442856	644.81152	-856.22437	102.59007	721.52576	-852.38525
1733	8.655	-226.22919	760.0957	-553.4588	-202.01016	790.05817	-503.19904	-195.29686	769.97113	-633.77612	200.50809	239.89505	-1730.8677	210.01231	250.33722	491.41885	468.14935	864.69415	-685.4007	471.36877	867.45966	-613.0011	457.89697	869.04504	-647.7774	8.7858572	898.97681	-591.49371	58.616806	751.97827	-604.55707	279.90527	907.84863	-633.25647	1.2566303	759.32678	-734.02502	45.41766	768.375	-436.97119	367.00488	558.41071	-426.09396	337.10144	501.68741	-439.22458	303.83411	538.1438	-427.37842	230.34825	230.26447	-438.2981	292.6268	235.21216	-426.95758	264.03033	176.12859	-433.05466	259.13095	76.549118	-520.30048	281.21503	69.801888	-444.1694	319.6622	35.211525	-491.94528	122.67485	46.295109	-475.66132	150.95984	26.723711	-400.92526	124.72288	43.507442	-440.45224	355.50381	551.92181	-860.24115	291.88809	534.04333	-857.67023	324.7894	496.2724	-844.30426	245.23898	269.40479	-854.9101	269.95093	210.54282	-841.71271	295.59311	270.2504	-850.34412	289.89865	71.98645	-816.34088	252.8306	82.584328	-746.54657	329.758	30.85236	-762.60547	151.28761	35.00111	-844.08093	131.15221	42.061848	-793.39294	138.35185	39.13427	-823.18854	212.33368	649.67267	-380.92496	166.09837	631.43677	-386.73032	143.00375	689.06165	-388.41821	233.62418	318.72604	-348.48581	154.04407	313.77716	-924.92804	158.74193	305.40384	-863.40369	161.45872	232.69092	-865.30762	62.998043	699.34125	-832.9422	84.342155	645.46808	-856.34033	102.5659	722.13898	-852.16602
